<?xml version="1.0" encoding="UTF-8" standalone="no"?>
<!DOCTYPE svg PUBLIC "-//W3C//DTD SVG 1.1//EN"
 "http://www.w3.org/Graphics/SVG/1.1/DTD/svg11.dtd">
<!-- Generated by graphviz version 14.1.5 (0)
 -->
<!-- Title: G Pages: 1 -->
<svg width="853pt" height="457pt"
 viewBox="0.00 0.00 853.00 457.00" xmlns="http://www.w3.org/2000/svg" xmlns:xlink="http://www.w3.org/1999/xlink">
<g id="graph0" class="graph" transform="scale(1 1) rotate(0) translate(21.6 434.99)">
<title>G</title>
<polygon fill="#111111" stroke="none" points="-21.6,21.6 -21.6,-434.99 831.85,-434.99 831.85,21.6 -21.6,21.6"/>
<!-- auth/auth.controller.ts -->
<g id="node1" class="node">
<title>auth/auth.controller.ts</title>
<path fill="none" stroke="#c6c5fe" d="M285.83,-296.25C285.83,-296.25 156.67,-296.25 156.67,-296.25 152.71,-296.25 148.75,-292.29 148.75,-288.34 148.75,-288.34 148.75,-280.42 148.75,-280.42 148.75,-276.46 152.71,-272.5 156.67,-272.5 156.67,-272.5 285.83,-272.5 285.83,-272.5 289.79,-272.5 293.75,-276.46 293.75,-280.42 293.75,-280.42 293.75,-288.34 293.75,-288.34 293.75,-292.29 289.79,-296.25 285.83,-296.25"/>
<text xml:space="preserve" text-anchor="middle" x="221.25" y="-278.95" font-family="Arial" font-size="14.00" fill="#c6c5fe">auth/auth.controller.ts</text>
</g>
<!-- auth/auth.model.ts -->
<g id="node2" class="node">
<title>auth/auth.model.ts</title>
<path fill="none" stroke="#cfffac" d="M765.58,-375.25C765.58,-375.25 653.67,-375.25 653.67,-375.25 649.71,-375.25 645.75,-371.29 645.75,-367.34 645.75,-367.34 645.75,-359.42 645.75,-359.42 645.75,-355.46 649.71,-351.5 653.67,-351.5 653.67,-351.5 765.58,-351.5 765.58,-351.5 769.54,-351.5 773.5,-355.46 773.5,-359.42 773.5,-359.42 773.5,-367.34 773.5,-367.34 773.5,-371.29 769.54,-375.25 765.58,-375.25"/>
<text xml:space="preserve" text-anchor="middle" x="709.62" y="-357.95" font-family="Arial" font-size="14.00" fill="#cfffac">auth/auth.model.ts</text>
</g>
<!-- auth/auth.controller.ts&#45;&gt;auth/auth.model.ts -->
<g id="edge1" class="edge">
<title>auth/auth.controller.ts&#45;&gt;auth/auth.model.ts</title>
<path fill="none" stroke="#757575" d="M232.59,-296.74C254.31,-321.61 307.56,-377.04 366.5,-397.38 468.91,-432.71 598.08,-400.85 664.58,-379.32"/>
<polygon fill="#757575" stroke="#757575" points="665.66,-382.65 674.04,-376.18 663.45,-376.01 665.66,-382.65"/>
</g>
<!-- auth/auth.service.ts -->
<g id="node3" class="node">
<title>auth/auth.service.ts</title>
<path fill="none" stroke="#c6c5fe" d="M528.33,-313.25C528.33,-313.25 411.17,-313.25 411.17,-313.25 407.21,-313.25 403.25,-309.29 403.25,-305.34 403.25,-305.34 403.25,-297.42 403.25,-297.42 403.25,-293.46 407.21,-289.5 411.17,-289.5 411.17,-289.5 528.33,-289.5 528.33,-289.5 532.29,-289.5 536.25,-293.46 536.25,-297.42 536.25,-297.42 536.25,-305.34 536.25,-305.34 536.25,-309.29 532.29,-313.25 528.33,-313.25"/>
<text xml:space="preserve" text-anchor="middle" x="469.75" y="-295.95" font-family="Arial" font-size="14.00" fill="#c6c5fe">auth/auth.service.ts</text>
</g>
<!-- auth/auth.controller.ts&#45;&gt;auth/auth.service.ts -->
<g id="edge2" class="edge">
<title>auth/auth.controller.ts&#45;&gt;auth/auth.service.ts</title>
<path fill="none" stroke="#757575" d="M294.21,-289.34C324.84,-291.45 360.61,-293.92 391.77,-296.07"/>
<polygon fill="#757575" stroke="#757575" points="391.29,-299.54 401.51,-296.74 391.77,-292.56 391.29,-299.54"/>
</g>
<!-- lib/json.ts -->
<g id="node4" class="node">
<title>lib/json.ts</title>
<path fill="none" stroke="#cfffac" d="M497.96,-195.25C497.96,-195.25 441.54,-195.25 441.54,-195.25 437.58,-195.25 433.62,-191.29 433.62,-187.34 433.62,-187.34 433.62,-179.42 433.62,-179.42 433.62,-175.46 437.58,-171.5 441.54,-171.5 441.54,-171.5 497.96,-171.5 497.96,-171.5 501.92,-171.5 505.88,-175.46 505.88,-179.42 505.88,-179.42 505.88,-187.34 505.88,-187.34 505.88,-191.29 501.92,-195.25 497.96,-195.25"/>
<text xml:space="preserve" text-anchor="middle" x="469.75" y="-177.95" font-family="Arial" font-size="14.00" fill="#cfffac">lib/json.ts</text>
</g>
<!-- auth/auth.controller.ts&#45;&gt;lib/json.ts -->
<g id="edge3" class="edge">
<title>auth/auth.controller.ts&#45;&gt;lib/json.ts</title>
<path fill="none" stroke="#757575" d="M258.59,-272.06C279.73,-264.7 306.79,-254.95 330.5,-245.38 365.49,-231.25 404.68,-213.49 432.37,-200.6"/>
<polygon fill="#757575" stroke="#757575" points="433.81,-203.79 441.39,-196.39 430.85,-197.45 433.81,-203.79"/>
</g>
<!-- lib/status_code.ts -->
<g id="node5" class="node">
<title>lib/status_code.ts</title>
<path fill="none" stroke="#cfffac" d="M761.83,-253.25C761.83,-253.25 657.42,-253.25 657.42,-253.25 653.46,-253.25 649.5,-249.29 649.5,-245.34 649.5,-245.34 649.5,-237.42 649.5,-237.42 649.5,-233.46 653.46,-229.5 657.42,-229.5 657.42,-229.5 761.83,-229.5 761.83,-229.5 765.79,-229.5 769.75,-233.46 769.75,-237.42 769.75,-237.42 769.75,-245.34 769.75,-245.34 769.75,-249.29 765.79,-253.25 761.83,-253.25"/>
<text xml:space="preserve" text-anchor="middle" x="709.62" y="-235.95" font-family="Arial" font-size="14.00" fill="#cfffac">lib/status_code.ts</text>
</g>
<!-- auth/auth.controller.ts&#45;&gt;lib/status_code.ts -->
<g id="edge4" class="edge">
<title>auth/auth.controller.ts&#45;&gt;lib/status_code.ts</title>
<path fill="none" stroke="#757575" d="M294.02,-278.03C386.38,-269.87 545.88,-255.77 637.79,-247.64"/>
<polygon fill="#757575" stroke="#757575" points="638.04,-251.13 647.69,-246.76 637.43,-244.16 638.04,-251.13"/>
</g>
<!-- middleware/auth.middleware.ts -->
<g id="node6" class="node">
<title>middleware/auth.middleware.ts</title>
<path fill="none" stroke="#c6c5fe" d="M563.58,-355.25C563.58,-355.25 375.92,-355.25 375.92,-355.25 371.96,-355.25 368,-351.29 368,-347.34 368,-347.34 368,-339.42 368,-339.42 368,-335.46 371.96,-331.5 375.92,-331.5 375.92,-331.5 563.58,-331.5 563.58,-331.5 567.54,-331.5 571.5,-335.46 571.5,-339.42 571.5,-339.42 571.5,-347.34 571.5,-347.34 571.5,-351.29 567.54,-355.25 563.58,-355.25"/>
<text xml:space="preserve" text-anchor="middle" x="469.75" y="-337.95" font-family="Arial" font-size="14.00" fill="#c6c5fe">middleware/auth.middleware.ts</text>
</g>
<!-- auth/auth.controller.ts&#45;&gt;middleware/auth.middleware.ts -->
<g id="edge5" class="edge">
<title>auth/auth.controller.ts&#45;&gt;middleware/auth.middleware.ts</title>
<path fill="none" stroke="#757575" d="M266.61,-296.74C295.06,-304.5 332.84,-314.49 366.5,-322.38 375.63,-324.52 385.25,-326.65 394.78,-328.69"/>
<polygon fill="#757575" stroke="#757575" points="393.92,-332.08 404.42,-330.73 395.36,-325.23 393.92,-332.08"/>
</g>
<!-- auth/auth.service.ts&#45;&gt;auth/auth.model.ts -->
<g id="edge6" class="edge">
<title>auth/auth.service.ts&#45;&gt;auth/auth.model.ts</title>
<path fill="none" stroke="#757575" d="M535.32,-313.71C547.86,-316.37 560.88,-319.31 573,-322.38 602.18,-329.77 634.46,-339.46 660.21,-347.57"/>
<polygon fill="#757575" stroke="#757575" points="659.14,-350.91 669.73,-350.6 661.26,-344.23 659.14,-350.91"/>
</g>
<!-- auth/auth.service.ts&#45;&gt;lib/status_code.ts -->
<g id="edge9" class="edge">
<title>auth/auth.service.ts&#45;&gt;lib/status_code.ts</title>
<path fill="none" stroke="#757575" d="M519.75,-289.02C557.09,-279.6 608.69,-266.58 648.53,-256.54"/>
<polygon fill="#757575" stroke="#757575" points="649.38,-259.93 658.22,-254.09 647.67,-253.14 649.38,-259.93"/>
</g>
<!-- db/index.ts -->
<g id="node7" class="node">
<title>db/index.ts</title>
<path fill="none" stroke="#cfffac" d="M742.33,-147.25C742.33,-147.25 676.92,-147.25 676.92,-147.25 672.96,-147.25 669,-143.29 669,-139.34 669,-139.34 669,-131.42 669,-131.42 669,-127.46 672.96,-123.5 676.92,-123.5 676.92,-123.5 742.33,-123.5 742.33,-123.5 746.29,-123.5 750.25,-127.46 750.25,-131.42 750.25,-131.42 750.25,-139.34 750.25,-139.34 750.25,-143.29 746.29,-147.25 742.33,-147.25"/>
<text xml:space="preserve" text-anchor="middle" x="709.62" y="-129.95" font-family="Arial" font-size="14.00" fill="#cfffac">db/index.ts</text>
</g>
<!-- auth/auth.service.ts&#45;&gt;db/index.ts -->
<g id="edge7" class="edge">
<title>auth/auth.service.ts&#45;&gt;db/index.ts</title>
<path fill="none" stroke="#757575" d="M488.24,-289.17C529.4,-260.45 632.58,-188.45 681.75,-154.13"/>
<polygon fill="#757575" stroke="#757575" points="683.67,-157.06 689.87,-148.47 679.66,-151.32 683.67,-157.06"/>
</g>
<!-- lib/secret.ts -->
<g id="node8" class="node">
<title>lib/secret.ts</title>
<path fill="none" stroke="#cfffac" d="M743.83,-313.25C743.83,-313.25 675.42,-313.25 675.42,-313.25 671.46,-313.25 667.5,-309.29 667.5,-305.34 667.5,-305.34 667.5,-297.42 667.5,-297.42 667.5,-293.46 671.46,-289.5 675.42,-289.5 675.42,-289.5 743.83,-289.5 743.83,-289.5 747.79,-289.5 751.75,-293.46 751.75,-297.42 751.75,-297.42 751.75,-305.34 751.75,-305.34 751.75,-309.29 747.79,-313.25 743.83,-313.25"/>
<text xml:space="preserve" text-anchor="middle" x="709.62" y="-295.95" font-family="Arial" font-size="14.00" fill="#cfffac">lib/secret.ts</text>
</g>
<!-- auth/auth.service.ts&#45;&gt;lib/secret.ts -->
<g id="edge8" class="edge">
<title>auth/auth.service.ts&#45;&gt;lib/secret.ts</title>
<path fill="none" stroke="#757575" d="M536.7,-301.38C574.25,-301.38 620.66,-301.38 655.8,-301.38"/>
<polygon fill="#757575" stroke="#757575" points="655.74,-304.88 665.74,-301.38 655.74,-297.88 655.74,-304.88"/>
</g>
<!-- middleware/auth.middleware.ts&#45;&gt;auth/auth.model.ts -->
<g id="edge22" class="edge">
<title>middleware/auth.middleware.ts&#45;&gt;auth/auth.model.ts</title>
<path fill="none" stroke="#757575" d="M571.98,-351.89C592.8,-353.64 614.36,-355.45 634.04,-357.11"/>
<polygon fill="#757575" stroke="#757575" points="633.62,-360.58 643.88,-357.93 634.21,-353.61 633.62,-360.58"/>
</g>
<!-- middleware/auth.middleware.ts&#45;&gt;lib/status_code.ts -->
<g id="edge24" class="edge">
<title>middleware/auth.middleware.ts&#45;&gt;lib/status_code.ts</title>
<path fill="none" stroke="#757575" d="M554.53,-331.04C560.98,-328.64 567.22,-325.78 573,-322.38 594.18,-309.9 588.96,-294.62 609,-280.38 622.41,-270.85 638.47,-263.25 653.73,-257.38"/>
<polygon fill="#757575" stroke="#757575" points="654.51,-260.82 662.71,-254.11 652.11,-254.24 654.51,-260.82"/>
</g>
<!-- middleware/auth.middleware.ts&#45;&gt;lib/secret.ts -->
<g id="edge23" class="edge">
<title>middleware/auth.middleware.ts&#45;&gt;lib/secret.ts</title>
<path fill="none" stroke="#757575" d="M540.83,-331C577.77,-324.48 622.32,-316.62 656.23,-310.63"/>
<polygon fill="#757575" stroke="#757575" points="656.56,-314.12 665.8,-308.94 655.35,-307.23 656.56,-314.12"/>
</g>
<!-- customers/customers.controller.ts -->
<g id="node9" class="node">
<title>customers/customers.controller.ts</title>
<path fill="none" stroke="#c6c5fe" d="M322.58,-236.25C322.58,-236.25 119.92,-236.25 119.92,-236.25 115.96,-236.25 112,-232.29 112,-228.34 112,-228.34 112,-220.42 112,-220.42 112,-216.46 115.96,-212.5 119.92,-212.5 119.92,-212.5 322.58,-212.5 322.58,-212.5 326.54,-212.5 330.5,-216.46 330.5,-220.42 330.5,-220.42 330.5,-228.34 330.5,-228.34 330.5,-232.29 326.54,-236.25 322.58,-236.25"/>
<text xml:space="preserve" text-anchor="middle" x="221.25" y="-218.95" font-family="Arial" font-size="14.00" fill="#c6c5fe">customers/customers.controller.ts</text>
</g>
<!-- customers/customers.controller.ts&#45;&gt;auth/auth.model.ts -->
<g id="edge10" class="edge">
<title>customers/customers.controller.ts&#45;&gt;auth/auth.model.ts</title>
<path fill="none" stroke="#757575" d="M285.17,-236.73C301.61,-242.52 318.16,-251 330.5,-263.38 364.14,-297.13 327.55,-336.91 366.5,-364.38 408,-393.65 546.72,-383.37 634.25,-373.31"/>
<polygon fill="#757575" stroke="#757575" points="634.43,-376.82 643.95,-372.17 633.61,-369.87 634.43,-376.82"/>
</g>
<!-- customers/customers.controller.ts&#45;&gt;lib/status_code.ts -->
<g id="edge12" class="edge">
<title>customers/customers.controller.ts&#45;&gt;lib/status_code.ts</title>
<path fill="none" stroke="#757575" d="M330.8,-228.17C424.65,-231.45 557.58,-236.1 638.18,-238.92"/>
<polygon fill="#757575" stroke="#757575" points="637.56,-242.4 647.68,-239.25 637.81,-235.4 637.56,-242.4"/>
</g>
<!-- customers/customers.controller.ts&#45;&gt;middleware/auth.middleware.ts -->
<g id="edge13" class="edge">
<title>customers/customers.controller.ts&#45;&gt;middleware/auth.middleware.ts</title>
<path fill="none" stroke="#757575" d="M278.56,-236.74C296.51,-242.65 315.56,-251.19 330.5,-263.38 354.3,-282.8 341.37,-304.71 366.5,-322.38 368.31,-323.65 370.17,-324.84 372.09,-325.97"/>
<polygon fill="#757575" stroke="#757575" points="370.2,-328.94 380.69,-330.36 373.38,-322.7 370.2,-328.94"/>
</g>
<!-- customers/customers.service.ts -->
<g id="node10" class="node">
<title>customers/customers.service.ts</title>
<path fill="none" stroke="#c6c5fe" d="M565.08,-115.25C565.08,-115.25 374.42,-115.25 374.42,-115.25 370.46,-115.25 366.5,-111.29 366.5,-107.34 366.5,-107.34 366.5,-99.42 366.5,-99.42 366.5,-95.46 370.46,-91.5 374.42,-91.5 374.42,-91.5 565.08,-91.5 565.08,-91.5 569.04,-91.5 573,-95.46 573,-99.42 573,-99.42 573,-107.34 573,-107.34 573,-111.29 569.04,-115.25 565.08,-115.25"/>
<text xml:space="preserve" text-anchor="middle" x="469.75" y="-97.95" font-family="Arial" font-size="14.00" fill="#c6c5fe">customers/customers.service.ts</text>
</g>
<!-- customers/customers.controller.ts&#45;&gt;customers/customers.service.ts -->
<g id="edge11" class="edge">
<title>customers/customers.controller.ts&#45;&gt;customers/customers.service.ts</title>
<path fill="none" stroke="#757575" d="M311.71,-212.01C318.26,-209.61 324.61,-206.76 330.5,-203.38 351.53,-191.31 347.75,-177.75 366.5,-162.38 386.47,-146 411.56,-131.45 431.89,-120.89"/>
<polygon fill="#757575" stroke="#757575" points="433.35,-124.08 440.68,-116.44 430.18,-117.84 433.35,-124.08"/>
</g>
<!-- customers/customers.service.ts&#45;&gt;lib/status_code.ts -->
<g id="edge16" class="edge">
<title>customers/customers.service.ts&#45;&gt;lib/status_code.ts</title>
<path fill="none" stroke="#757575" d="M537.22,-115.73C549.47,-119.26 561.89,-123.74 573,-129.38 585.56,-135.75 650.47,-191.12 685.74,-221.55"/>
<polygon fill="#757575" stroke="#757575" points="683.43,-224.17 693.28,-228.06 688.01,-218.88 683.43,-224.17"/>
</g>
<!-- customers/customers.service.ts&#45;&gt;db/index.ts -->
<g id="edge15" class="edge">
<title>customers/customers.service.ts&#45;&gt;db/index.ts</title>
<path fill="none" stroke="#757575" d="M562.72,-115.75C594.86,-120.07 629.78,-124.77 657.4,-128.49"/>
<polygon fill="#757575" stroke="#757575" points="656.88,-131.95 667.26,-129.81 657.81,-125.01 656.88,-131.95"/>
</g>
<!-- customers/customers.model.ts -->
<g id="node11" class="node">
<title>customers/customers.model.ts</title>
<path fill="none" stroke="#cfffac" d="M802.33,-105.25C802.33,-105.25 616.92,-105.25 616.92,-105.25 612.96,-105.25 609,-101.29 609,-97.34 609,-97.34 609,-89.42 609,-89.42 609,-85.46 612.96,-81.5 616.92,-81.5 616.92,-81.5 802.33,-81.5 802.33,-81.5 806.29,-81.5 810.25,-85.46 810.25,-89.42 810.25,-89.42 810.25,-97.34 810.25,-97.34 810.25,-101.29 806.29,-105.25 802.33,-105.25"/>
<text xml:space="preserve" text-anchor="middle" x="709.62" y="-87.95" font-family="Arial" font-size="14.00" fill="#cfffac">customers/customers.model.ts</text>
</g>
<!-- customers/customers.service.ts&#45;&gt;customers/customers.model.ts -->
<g id="edge14" class="edge">
<title>customers/customers.service.ts&#45;&gt;customers/customers.model.ts</title>
<path fill="none" stroke="#757575" d="M573.36,-99.06C581.3,-98.73 589.35,-98.39 597.35,-98.06"/>
<polygon fill="#757575" stroke="#757575" points="597.26,-101.56 607.11,-97.65 596.97,-94.57 597.26,-101.56"/>
</g>
<!-- index.ts -->
<g id="node12" class="node">
<title>index.ts</title>
<path fill="none" stroke="#c6c5fe" d="M61.33,-194.25C61.33,-194.25 14.67,-194.25 14.67,-194.25 10.71,-194.25 6.75,-190.29 6.75,-186.34 6.75,-186.34 6.75,-178.42 6.75,-178.42 6.75,-174.46 10.71,-170.5 14.67,-170.5 14.67,-170.5 61.33,-170.5 61.33,-170.5 65.29,-170.5 69.25,-174.46 69.25,-178.42 69.25,-178.42 69.25,-186.34 69.25,-186.34 69.25,-190.29 65.29,-194.25 61.33,-194.25"/>
<text xml:space="preserve" text-anchor="middle" x="38" y="-176.95" font-family="Arial" font-size="14.00" fill="#c6c5fe">index.ts</text>
</g>
<!-- index.ts&#45;&gt;auth/auth.controller.ts -->
<g id="edge17" class="edge">
<title>index.ts&#45;&gt;auth/auth.controller.ts</title>
<path fill="none" stroke="#757575" d="M63.28,-194.55C67.7,-197.2 72.12,-200.18 76,-203.38 94.97,-219.01 91.76,-231.41 112,-245.38 126.09,-255.1 142.89,-262.69 158.99,-268.48"/>
<polygon fill="#757575" stroke="#757575" points="157.41,-271.64 168.01,-271.54 159.66,-265.01 157.41,-271.64"/>
</g>
<!-- index.ts&#45;&gt;customers/customers.controller.ts -->
<g id="edge18" class="edge">
<title>index.ts&#45;&gt;customers/customers.controller.ts</title>
<path fill="none" stroke="#757575" d="M69.74,-191.88C82.71,-195.71 98.02,-200.02 112,-203.38 121.16,-205.58 130.81,-207.71 140.41,-209.72"/>
<polygon fill="#757575" stroke="#757575" points="139.64,-213.14 150.14,-211.71 141.05,-206.28 139.64,-213.14"/>
</g>
<!-- lib/error&#45;handling.ts -->
<g id="node13" class="node">
<title>lib/error&#45;handling.ts</title>
<path fill="none" stroke="#cfffac" d="M279.08,-152.25C279.08,-152.25 163.42,-152.25 163.42,-152.25 159.46,-152.25 155.5,-148.29 155.5,-144.34 155.5,-144.34 155.5,-136.42 155.5,-136.42 155.5,-132.46 159.46,-128.5 163.42,-128.5 163.42,-128.5 279.08,-128.5 279.08,-128.5 283.04,-128.5 287,-132.46 287,-136.42 287,-136.42 287,-144.34 287,-144.34 287,-148.29 283.04,-152.25 279.08,-152.25"/>
<text xml:space="preserve" text-anchor="middle" x="221.25" y="-134.95" font-family="Arial" font-size="14.00" fill="#cfffac">lib/error&#45;handling.ts</text>
</g>
<!-- index.ts&#45;&gt;lib/error&#45;handling.ts -->
<g id="edge19" class="edge">
<title>index.ts&#45;&gt;lib/error&#45;handling.ts</title>
<path fill="none" stroke="#757575" d="M69.74,-172.88C82.71,-169.04 98.02,-164.74 112,-161.38 122.29,-158.9 133.19,-156.52 143.95,-154.3"/>
<polygon fill="#757575" stroke="#757575" points="144.49,-157.76 153.6,-152.35 143.1,-150.9 144.49,-157.76"/>
</g>
<!-- lib/winston&#45;logger.ts -->
<g id="node14" class="node">
<title>lib/winston&#45;logger.ts</title>
<path fill="none" stroke="#cfffac" d="M280.58,-110.25C280.58,-110.25 161.92,-110.25 161.92,-110.25 157.96,-110.25 154,-106.29 154,-102.34 154,-102.34 154,-94.42 154,-94.42 154,-90.46 157.96,-86.5 161.92,-86.5 161.92,-86.5 280.58,-86.5 280.58,-86.5 284.54,-86.5 288.5,-90.46 288.5,-94.42 288.5,-94.42 288.5,-102.34 288.5,-102.34 288.5,-106.29 284.54,-110.25 280.58,-110.25"/>
<text xml:space="preserve" text-anchor="middle" x="221.25" y="-92.95" font-family="Arial" font-size="14.00" fill="#cfffac">lib/winston&#45;logger.ts</text>
</g>
<!-- index.ts&#45;&gt;lib/winston&#45;logger.ts -->
<g id="edge20" class="edge">
<title>index.ts&#45;&gt;lib/winston&#45;logger.ts</title>
<path fill="none" stroke="#757575" d="M49.51,-170.03C62.61,-155.51 86.4,-131.8 112,-119.38 121.52,-114.76 131.98,-111.15 142.53,-108.34"/>
<polygon fill="#757575" stroke="#757575" points="143.15,-111.79 152.04,-106.04 141.5,-104.99 143.15,-111.79"/>
</g>
<!-- users/user.controller.ts -->
<g id="node15" class="node">
<title>users/user.controller.ts</title>
<path fill="none" stroke="#c6c5fe" d="M288.83,-194.25C288.83,-194.25 153.67,-194.25 153.67,-194.25 149.71,-194.25 145.75,-190.29 145.75,-186.34 145.75,-186.34 145.75,-178.42 145.75,-178.42 145.75,-174.46 149.71,-170.5 153.67,-170.5 153.67,-170.5 288.83,-170.5 288.83,-170.5 292.79,-170.5 296.75,-174.46 296.75,-178.42 296.75,-178.42 296.75,-186.34 296.75,-186.34 296.75,-190.29 292.79,-194.25 288.83,-194.25"/>
<text xml:space="preserve" text-anchor="middle" x="221.25" y="-176.95" font-family="Arial" font-size="14.00" fill="#c6c5fe">users/user.controller.ts</text>
</g>
<!-- index.ts&#45;&gt;users/user.controller.ts -->
<g id="edge21" class="edge">
<title>index.ts&#45;&gt;users/user.controller.ts</title>
<path fill="none" stroke="#757575" d="M69.75,-182.38C87.63,-182.38 111.14,-182.38 134.24,-182.38"/>
<polygon fill="#757575" stroke="#757575" points="134.01,-185.88 144.01,-182.38 134.01,-178.88 134.01,-185.88"/>
</g>
<!-- users/user.controller.ts&#45;&gt;lib/json.ts -->
<g id="edge25" class="edge">
<title>users/user.controller.ts&#45;&gt;lib/json.ts</title>
<path fill="none" stroke="#757575" d="M297.21,-182.68C337.81,-182.85 386.7,-183.04 421.89,-183.19"/>
<polygon fill="#757575" stroke="#757575" points="421.74,-186.69 431.75,-183.23 421.76,-179.69 421.74,-186.69"/>
</g>
<!-- users/user.controller.ts&#45;&gt;lib/status_code.ts -->
<g id="edge26" class="edge">
<title>users/user.controller.ts&#45;&gt;lib/status_code.ts</title>
<path fill="none" stroke="#757575" d="M296.91,-170.03C319.23,-166.88 343.8,-163.94 366.5,-162.38 458.06,-156.06 484.4,-138.45 573,-162.38 615.92,-173.97 659.22,-202.87 684.98,-222.32"/>
<polygon fill="#757575" stroke="#757575" points="682.71,-224.98 692.76,-228.32 686.99,-219.44 682.71,-224.98"/>
</g>
<!-- users/user.controller.ts&#45;&gt;middleware/auth.middleware.ts -->
<g id="edge27" class="edge">
<title>users/user.controller.ts&#45;&gt;middleware/auth.middleware.ts</title>
<path fill="none" stroke="#757575" d="M297.13,-185.92C309.38,-189.41 321.12,-194.91 330.5,-203.38 371.52,-240.4 325.69,-285.13 366.5,-322.38 367.44,-323.23 368.4,-324.06 369.38,-324.85"/>
<polygon fill="#757575" stroke="#757575" points="367.32,-327.68 377.57,-330.37 371.23,-321.88 367.32,-327.68"/>
</g>
<!-- users/user.model.ts -->
<g id="node17" class="node">
<title>users/user.model.ts</title>
<path fill="none" stroke="#cfffac" d="M768.58,-53.25C768.58,-53.25 650.67,-53.25 650.67,-53.25 646.71,-53.25 642.75,-49.29 642.75,-45.34 642.75,-45.34 642.75,-37.42 642.75,-37.42 642.75,-33.46 646.71,-29.5 650.67,-29.5 650.67,-29.5 768.58,-29.5 768.58,-29.5 772.54,-29.5 776.5,-33.46 776.5,-37.42 776.5,-37.42 776.5,-45.34 776.5,-45.34 776.5,-49.29 772.54,-53.25 768.58,-53.25"/>
<text xml:space="preserve" text-anchor="middle" x="709.62" y="-35.95" font-family="Arial" font-size="14.00" fill="#cfffac">users/user.model.ts</text>
</g>
<!-- users/user.controller.ts&#45;&gt;users/user.model.ts -->
<g id="edge28" class="edge">
<title>users/user.controller.ts&#45;&gt;users/user.model.ts</title>
<path fill="none" stroke="#757575" d="M297.16,-178.87C309.41,-175.37 321.14,-169.87 330.5,-161.38 372.06,-123.69 321.52,-73.92 366.5,-40.38 454.07,24.93 592.39,-4.11 663.35,-25.65"/>
<polygon fill="#757575" stroke="#757575" points="662.11,-28.93 672.69,-28.57 664.2,-22.25 662.11,-28.93"/>
</g>
<!-- users/user.service.ts -->
<g id="node18" class="node">
<title>users/user.service.ts</title>
<path fill="none" stroke="#c6c5fe" d="M531.33,-73.25C531.33,-73.25 408.17,-73.25 408.17,-73.25 404.21,-73.25 400.25,-69.29 400.25,-65.34 400.25,-65.34 400.25,-57.42 400.25,-57.42 400.25,-53.46 404.21,-49.5 408.17,-49.5 408.17,-49.5 531.33,-49.5 531.33,-49.5 535.29,-49.5 539.25,-53.46 539.25,-57.42 539.25,-57.42 539.25,-65.34 539.25,-65.34 539.25,-69.29 535.29,-73.25 531.33,-73.25"/>
<text xml:space="preserve" text-anchor="middle" x="469.75" y="-55.95" font-family="Arial" font-size="14.00" fill="#c6c5fe">users/user.service.ts</text>
</g>
<!-- users/user.controller.ts&#45;&gt;users/user.service.ts -->
<g id="edge29" class="edge">
<title>users/user.controller.ts&#45;&gt;users/user.service.ts</title>
<path fill="none" stroke="#757575" d="M297.07,-177.54C309.12,-174.15 320.8,-169.02 330.5,-161.38 360.81,-137.5 336.33,-106.43 366.5,-82.38 373.2,-77.04 380.91,-72.95 389.04,-69.84"/>
<polygon fill="#757575" stroke="#757575" points="390.05,-73.2 398.46,-66.76 387.87,-66.54 390.05,-73.2"/>
</g>
<!-- lib/docs.ts -->
<g id="node16" class="node">
<title>lib/docs.ts</title>
<path fill="none" stroke="#cfffac" d="M68.08,-236.25C68.08,-236.25 7.92,-236.25 7.92,-236.25 3.96,-236.25 0,-232.29 0,-228.34 0,-228.34 0,-220.42 0,-220.42 0,-216.46 3.96,-212.5 7.92,-212.5 7.92,-212.5 68.08,-212.5 68.08,-212.5 72.04,-212.5 76,-216.46 76,-220.42 76,-220.42 76,-228.34 76,-228.34 76,-232.29 72.04,-236.25 68.08,-236.25"/>
<text xml:space="preserve" text-anchor="middle" x="38" y="-218.95" font-family="Arial" font-size="14.00" fill="#cfffac">lib/docs.ts</text>
</g>
<!-- users/user.service.ts&#45;&gt;db/index.ts -->
<g id="edge30" class="edge">
<title>users/user.service.ts&#45;&gt;db/index.ts</title>
<path fill="none" stroke="#757575" d="M539.53,-70.33C551.06,-73.27 562.63,-77.18 573,-82.38 592.14,-91.97 589.89,-104.74 609,-114.38 624,-121.95 641.6,-126.79 657.8,-129.89"/>
<polygon fill="#757575" stroke="#757575" points="656.8,-133.27 667.25,-131.51 657.98,-126.37 656.8,-133.27"/>
</g>
<!-- users/user.service.ts&#45;&gt;users/user.model.ts -->
<g id="edge31" class="edge">
<title>users/user.service.ts&#45;&gt;users/user.model.ts</title>
<path fill="none" stroke="#757575" d="M539.55,-55.59C568.27,-53.18 601.75,-50.36 631.31,-47.88"/>
<polygon fill="#757575" stroke="#757575" points="631.25,-51.4 640.92,-47.07 630.67,-44.42 631.25,-51.4"/>
</g>
</g>
</svg>
