<?xml version="1.0" encoding="UTF-8" standalone="no"?>
<!DOCTYPE svg PUBLIC "-//W3C//DTD SVG 1.1//EN"
 "http://www.w3.org/Graphics/SVG/1.1/DTD/svg11.dtd">
<!-- Generated by graphviz version 14.1.5 (0)
 -->
<!-- Title: G Pages: 1 -->
<svg width="1120pt" height="939pt"
 viewBox="0.00 0.00 1120.00 939.00" xmlns="http://www.w3.org/2000/svg" xmlns:xlink="http://www.w3.org/1999/xlink">
<g id="graph0" class="graph" transform="scale(1 1) rotate(0) translate(21.6 917.35)">
<title>G</title>
<polygon fill="#111111" stroke="none" points="-21.6,21.6 -21.6,-917.35 1098.35,-917.35 1098.35,21.6 -21.6,21.6"/>
<!-- app.ts -->
<g id="node1" class="node">
<title>app.ts</title>
<path fill="none" stroke="#c6c5fe" d="M154.33,-484.75C154.33,-484.75 116.17,-484.75 116.17,-484.75 112.21,-484.75 108.25,-480.79 108.25,-476.83 108.25,-476.83 108.25,-468.92 108.25,-468.92 108.25,-464.96 112.21,-461 116.17,-461 116.17,-461 154.33,-461 154.33,-461 158.29,-461 162.25,-464.96 162.25,-468.92 162.25,-468.92 162.25,-476.83 162.25,-476.83 162.25,-480.79 158.29,-484.75 154.33,-484.75"/>
<text xml:space="preserve" text-anchor="middle" x="135.25" y="-467.45" font-family="Arial" font-size="14.00" fill="#c6c5fe">app.ts</text>
</g>
<!-- auth/auth.controller.ts -->
<g id="node2" class="node">
<title>auth/auth.controller.ts</title>
<path fill="none" stroke="#c6c5fe" d="M372.83,-619.75C372.83,-619.75 243.67,-619.75 243.67,-619.75 239.71,-619.75 235.75,-615.79 235.75,-611.83 235.75,-611.83 235.75,-603.92 235.75,-603.92 235.75,-599.96 239.71,-596 243.67,-596 243.67,-596 372.83,-596 372.83,-596 376.79,-596 380.75,-599.96 380.75,-603.92 380.75,-603.92 380.75,-611.83 380.75,-611.83 380.75,-615.79 376.79,-619.75 372.83,-619.75"/>
<text xml:space="preserve" text-anchor="middle" x="308.25" y="-602.45" font-family="Arial" font-size="14.00" fill="#c6c5fe">auth/auth.controller.ts</text>
</g>
<!-- app.ts&#45;&gt;auth/auth.controller.ts -->
<g id="edge1" class="edge">
<title>app.ts&#45;&gt;auth/auth.controller.ts</title>
<path fill="none" stroke="#757575" d="M142.73,-485.22C152.61,-503.07 173.01,-536.2 198.25,-556.88 216.13,-571.52 238.91,-583.03 259.02,-591.38"/>
<polygon fill="#757575" stroke="#757575" points="257.56,-594.57 268.15,-595.02 260.15,-588.07 257.56,-594.57"/>
</g>
<!-- customers/customers.controller.ts -->
<g id="node3" class="node">
<title>customers/customers.controller.ts</title>
<path fill="none" stroke="#c6c5fe" d="M409.58,-547.75C409.58,-547.75 206.92,-547.75 206.92,-547.75 202.96,-547.75 199,-543.79 199,-539.83 199,-539.83 199,-531.92 199,-531.92 199,-527.96 202.96,-524 206.92,-524 206.92,-524 409.58,-524 409.58,-524 413.54,-524 417.5,-527.96 417.5,-531.92 417.5,-531.92 417.5,-539.83 417.5,-539.83 417.5,-543.79 413.54,-547.75 409.58,-547.75"/>
<text xml:space="preserve" text-anchor="middle" x="308.25" y="-530.45" font-family="Arial" font-size="14.00" fill="#c6c5fe">customers/customers.controller.ts</text>
</g>
<!-- app.ts&#45;&gt;customers/customers.controller.ts -->
<g id="edge2" class="edge">
<title>app.ts&#45;&gt;customers/customers.controller.ts</title>
<path fill="none" stroke="#757575" d="M150.55,-485.06C162.53,-494.62 180.47,-507.51 198.25,-514.88 203.11,-516.89 208.18,-518.71 213.35,-520.37"/>
<polygon fill="#757575" stroke="#757575" points="212.04,-523.63 222.62,-523.09 214.02,-516.91 212.04,-523.63"/>
</g>
<!-- dashboard/dashboard.controller.ts -->
<g id="node4" class="node">
<title>dashboard/dashboard.controller.ts</title>
<path fill="none" stroke="#c6c5fe" d="M410.33,-421.75C410.33,-421.75 206.17,-421.75 206.17,-421.75 202.21,-421.75 198.25,-417.79 198.25,-413.83 198.25,-413.83 198.25,-405.92 198.25,-405.92 198.25,-401.96 202.21,-398 206.17,-398 206.17,-398 410.33,-398 410.33,-398 414.29,-398 418.25,-401.96 418.25,-405.92 418.25,-405.92 418.25,-413.83 418.25,-413.83 418.25,-417.79 414.29,-421.75 410.33,-421.75"/>
<text xml:space="preserve" text-anchor="middle" x="308.25" y="-404.45" font-family="Arial" font-size="14.00" fill="#c6c5fe">dashboard/dashboard.controller.ts</text>
</g>
<!-- app.ts&#45;&gt;dashboard/dashboard.controller.ts -->
<g id="edge3" class="edge">
<title>app.ts&#45;&gt;dashboard/dashboard.controller.ts</title>
<path fill="none" stroke="#757575" d="M150.55,-460.69C162.53,-451.13 180.47,-438.24 198.25,-430.88 203.11,-428.86 208.18,-427.04 213.35,-425.38"/>
<polygon fill="#757575" stroke="#757575" points="214.02,-428.84 222.62,-422.66 212.04,-422.12 214.02,-428.84"/>
</g>
<!-- lib/error&#45;handling.ts -->
<g id="node5" class="node">
<title>lib/error&#45;handling.ts</title>
<path fill="none" stroke="#cfffac" d="M366.08,-23.75C366.08,-23.75 250.42,-23.75 250.42,-23.75 246.46,-23.75 242.5,-19.79 242.5,-15.83 242.5,-15.83 242.5,-7.92 242.5,-7.92 242.5,-3.96 246.46,0 250.42,0 250.42,0 366.08,0 366.08,0 370.04,0 374,-3.96 374,-7.92 374,-7.92 374,-15.83 374,-15.83 374,-19.79 370.04,-23.75 366.08,-23.75"/>
<text xml:space="preserve" text-anchor="middle" x="308.25" y="-6.45" font-family="Arial" font-size="14.00" fill="#cfffac">lib/error&#45;handling.ts</text>
</g>
<!-- app.ts&#45;&gt;lib/error&#45;handling.ts -->
<g id="edge4" class="edge">
<title>app.ts&#45;&gt;lib/error&#45;handling.ts</title>
<path fill="none" stroke="#757575" d="M136.21,-460.71C136.26,-396.98 139.67,-102.15 198.25,-37.88 207.02,-28.26 218.65,-21.89 231.04,-17.73"/>
<polygon fill="#757575" stroke="#757575" points="231.95,-21.11 240.63,-15.03 230.05,-14.37 231.95,-21.11"/>
</g>
<!-- lib/winston&#45;logger.ts -->
<g id="node6" class="node">
<title>lib/winston&#45;logger.ts</title>
<path fill="none" stroke="#cfffac" d="M1068.83,-185.75C1068.83,-185.75 950.17,-185.75 950.17,-185.75 946.21,-185.75 942.25,-181.79 942.25,-177.83 942.25,-177.83 942.25,-169.92 942.25,-169.92 942.25,-165.96 946.21,-162 950.17,-162 950.17,-162 1068.83,-162 1068.83,-162 1072.79,-162 1076.75,-165.96 1076.75,-169.92 1076.75,-169.92 1076.75,-177.83 1076.75,-177.83 1076.75,-181.79 1072.79,-185.75 1068.83,-185.75"/>
<text xml:space="preserve" text-anchor="middle" x="1009.5" y="-168.45" font-family="Arial" font-size="14.00" fill="#cfffac">lib/winston&#45;logger.ts</text>
</g>
<!-- app.ts&#45;&gt;lib/winston&#45;logger.ts -->
<g id="edge5" class="edge">
<title>app.ts&#45;&gt;lib/winston&#45;logger.ts</title>
<path fill="none" stroke="#757575" d="M140.89,-460.56C163.74,-402.07 270.54,-151.85 454.25,-71.88 639.03,8.56 717.74,-36.61 906.25,-107.88 935.63,-118.98 965.37,-139.45 985.15,-154.66"/>
<polygon fill="#757575" stroke="#757575" points="982.8,-157.26 992.82,-160.7 987.13,-151.76 982.8,-157.26"/>
</g>
<!-- orders/order.controller.ts -->
<g id="node7" class="node">
<title>orders/order.controller.ts</title>
<path fill="none" stroke="#c6c5fe" d="M381.08,-783.75C381.08,-783.75 235.42,-783.75 235.42,-783.75 231.46,-783.75 227.5,-779.79 227.5,-775.83 227.5,-775.83 227.5,-767.92 227.5,-767.92 227.5,-763.96 231.46,-760 235.42,-760 235.42,-760 381.08,-760 381.08,-760 385.04,-760 389,-763.96 389,-767.92 389,-767.92 389,-775.83 389,-775.83 389,-779.79 385.04,-783.75 381.08,-783.75"/>
<text xml:space="preserve" text-anchor="middle" x="308.25" y="-766.45" font-family="Arial" font-size="14.00" fill="#c6c5fe">orders/order.controller.ts</text>
</g>
<!-- app.ts&#45;&gt;orders/order.controller.ts -->
<g id="edge6" class="edge">
<title>app.ts&#45;&gt;orders/order.controller.ts</title>
<path fill="none" stroke="#757575" d="M137.01,-485.13C139.71,-520.24 151.41,-623.04 198.25,-690.88 217.12,-718.2 248.23,-739.98 272.4,-754.05"/>
<polygon fill="#757575" stroke="#757575" points="270.52,-757.01 280.95,-758.85 273.95,-750.9 270.52,-757.01"/>
</g>
<!-- payments/payment.controller.ts -->
<g id="node8" class="node">
<title>payments/payment.controller.ts</title>
<path fill="none" stroke="#c6c5fe" d="M402.46,-379.75C402.46,-379.75 214.04,-379.75 214.04,-379.75 210.08,-379.75 206.12,-375.79 206.12,-371.83 206.12,-371.83 206.12,-363.92 206.12,-363.92 206.12,-359.96 210.08,-356 214.04,-356 214.04,-356 402.46,-356 402.46,-356 406.42,-356 410.38,-359.96 410.38,-363.92 410.38,-363.92 410.38,-371.83 410.38,-371.83 410.38,-375.79 406.42,-379.75 402.46,-379.75"/>
<text xml:space="preserve" text-anchor="middle" x="308.25" y="-362.45" font-family="Arial" font-size="14.00" fill="#c6c5fe">payments/payment.controller.ts</text>
</g>
<!-- app.ts&#45;&gt;payments/payment.controller.ts -->
<g id="edge7" class="edge">
<title>app.ts&#45;&gt;payments/payment.controller.ts</title>
<path fill="none" stroke="#757575" d="M141.66,-460.6C150.57,-441.89 170.19,-406.57 198.25,-388.88 200.44,-387.5 202.69,-386.21 205,-385"/>
<polygon fill="#757575" stroke="#757575" points="206.46,-388.18 214.09,-380.83 203.54,-381.82 206.46,-388.18"/>
</g>
<!-- services/service.controller.ts -->
<g id="node9" class="node">
<title>services/service.controller.ts</title>
<path fill="none" stroke="#c6c5fe" d="M392.71,-463.75C392.71,-463.75 223.79,-463.75 223.79,-463.75 219.83,-463.75 215.88,-459.79 215.88,-455.83 215.88,-455.83 215.88,-447.92 215.88,-447.92 215.88,-443.96 219.83,-440 223.79,-440 223.79,-440 392.71,-440 392.71,-440 396.67,-440 400.62,-443.96 400.62,-447.92 400.62,-447.92 400.62,-455.83 400.62,-455.83 400.62,-459.79 396.67,-463.75 392.71,-463.75"/>
<text xml:space="preserve" text-anchor="middle" x="308.25" y="-446.45" font-family="Arial" font-size="14.00" fill="#c6c5fe">services/service.controller.ts</text>
</g>
<!-- app.ts&#45;&gt;services/service.controller.ts -->
<g id="edge8" class="edge">
<title>app.ts&#45;&gt;services/service.controller.ts</title>
<path fill="none" stroke="#757575" d="M162.59,-469.64C174.28,-468.2 188.86,-466.41 204.22,-464.53"/>
<polygon fill="#757575" stroke="#757575" points="204.52,-468.02 214.02,-463.32 203.66,-461.07 204.52,-468.02"/>
</g>
<!-- tokens/token.controller.ts -->
<g id="node10" class="node">
<title>tokens/token.controller.ts</title>
<path fill="none" stroke="#c6c5fe" d="M382.96,-681.75C382.96,-681.75 233.54,-681.75 233.54,-681.75 229.58,-681.75 225.62,-677.79 225.62,-673.83 225.62,-673.83 225.62,-665.92 225.62,-665.92 225.62,-661.96 229.58,-658 233.54,-658 233.54,-658 382.96,-658 382.96,-658 386.92,-658 390.88,-661.96 390.88,-665.92 390.88,-665.92 390.88,-673.83 390.88,-673.83 390.88,-677.79 386.92,-681.75 382.96,-681.75"/>
<text xml:space="preserve" text-anchor="middle" x="308.25" y="-664.45" font-family="Arial" font-size="14.00" fill="#c6c5fe">tokens/token.controller.ts</text>
</g>
<!-- app.ts&#45;&gt;tokens/token.controller.ts -->
<g id="edge9" class="edge">
<title>app.ts&#45;&gt;tokens/token.controller.ts</title>
<path fill="none" stroke="#757575" d="M137.69,-484.84C141.78,-513.62 156.03,-587.43 198.25,-628.88 209.28,-639.7 223.44,-647.72 237.88,-653.64"/>
<polygon fill="#757575" stroke="#757575" points="236.4,-656.82 246.99,-657.06 238.86,-650.27 236.4,-656.82"/>
</g>
<!-- users/user.controller.ts -->
<g id="node11" class="node">
<title>users/user.controller.ts</title>
<path fill="none" stroke="#c6c5fe" d="M375.83,-505.75C375.83,-505.75 240.67,-505.75 240.67,-505.75 236.71,-505.75 232.75,-501.79 232.75,-497.83 232.75,-497.83 232.75,-489.92 232.75,-489.92 232.75,-485.96 236.71,-482 240.67,-482 240.67,-482 375.83,-482 375.83,-482 379.79,-482 383.75,-485.96 383.75,-489.92 383.75,-489.92 383.75,-497.83 383.75,-497.83 383.75,-501.79 379.79,-505.75 375.83,-505.75"/>
<text xml:space="preserve" text-anchor="middle" x="308.25" y="-488.45" font-family="Arial" font-size="14.00" fill="#c6c5fe">users/user.controller.ts</text>
</g>
<!-- app.ts&#45;&gt;users/user.controller.ts -->
<g id="edge10" class="edge">
<title>app.ts&#45;&gt;users/user.controller.ts</title>
<path fill="none" stroke="#757575" d="M162.59,-476.11C178.55,-478.07 199.9,-480.69 221.28,-483.32"/>
<polygon fill="#757575" stroke="#757575" points="220.59,-486.76 230.94,-484.5 221.44,-479.81 220.59,-486.76"/>
</g>
<!-- auth/auth.model.ts -->
<g id="node12" class="node">
<title>auth/auth.model.ts</title>
<path fill="none" stroke="#cfffac" d="M860.83,-743.75C860.83,-743.75 748.92,-743.75 748.92,-743.75 744.96,-743.75 741,-739.79 741,-735.83 741,-735.83 741,-727.92 741,-727.92 741,-723.96 744.96,-720 748.92,-720 748.92,-720 860.83,-720 860.83,-720 864.79,-720 868.75,-723.96 868.75,-727.92 868.75,-727.92 868.75,-735.83 868.75,-735.83 868.75,-739.79 864.79,-743.75 860.83,-743.75"/>
<text xml:space="preserve" text-anchor="middle" x="804.88" y="-726.45" font-family="Arial" font-size="14.00" fill="#cfffac">auth/auth.model.ts</text>
</g>
<!-- auth/auth.controller.ts&#45;&gt;auth/auth.model.ts -->
<g id="edge11" class="edge">
<title>auth/auth.controller.ts&#45;&gt;auth/auth.model.ts</title>
<path fill="none" stroke="#757575" d="M373.9,-620.23C390.48,-626.31 406.82,-635.37 418.25,-648.88 472.07,-712.49 389.92,-779.91 454.25,-832.88 490.83,-863 624.45,-852.68 667.5,-832.88 689.84,-822.6 684.65,-806.65 703.5,-790.88 723.17,-774.42 748,-759.78 768.04,-749.2"/>
<polygon fill="#757575" stroke="#757575" points="769.4,-752.44 776.69,-744.74 766.2,-746.21 769.4,-752.44"/>
</g>
<!-- auth/auth.service.ts -->
<g id="node13" class="node">
<title>auth/auth.service.ts</title>
<path fill="none" stroke="#c6c5fe" d="M619.46,-659.75C619.46,-659.75 502.29,-659.75 502.29,-659.75 498.33,-659.75 494.38,-655.79 494.38,-651.83 494.38,-651.83 494.38,-643.92 494.38,-643.92 494.38,-639.96 498.33,-636 502.29,-636 502.29,-636 619.46,-636 619.46,-636 623.42,-636 627.38,-639.96 627.38,-643.92 627.38,-643.92 627.38,-651.83 627.38,-651.83 627.38,-655.79 623.42,-659.75 619.46,-659.75"/>
<text xml:space="preserve" text-anchor="middle" x="560.88" y="-642.45" font-family="Arial" font-size="14.00" fill="#c6c5fe">auth/auth.service.ts</text>
</g>
<!-- auth/auth.controller.ts&#45;&gt;auth/auth.service.ts -->
<g id="edge12" class="edge">
<title>auth/auth.controller.ts&#45;&gt;auth/auth.service.ts</title>
<path fill="none" stroke="#757575" d="M381.07,-619.34C412.9,-624.42 450.4,-630.4 482.81,-635.58"/>
<polygon fill="#757575" stroke="#757575" points="482.13,-639.01 492.55,-637.13 483.23,-632.1 482.13,-639.01"/>
</g>
<!-- lib/status_code.ts -->
<g id="node14" class="node">
<title>lib/status_code.ts</title>
<path fill="none" stroke="#cfffac" d="M857.08,-541.75C857.08,-541.75 752.67,-541.75 752.67,-541.75 748.71,-541.75 744.75,-537.79 744.75,-533.83 744.75,-533.83 744.75,-525.92 744.75,-525.92 744.75,-521.96 748.71,-518 752.67,-518 752.67,-518 857.08,-518 857.08,-518 861.04,-518 865,-521.96 865,-525.92 865,-525.92 865,-533.83 865,-533.83 865,-537.79 861.04,-541.75 857.08,-541.75"/>
<text xml:space="preserve" text-anchor="middle" x="804.88" y="-524.45" font-family="Arial" font-size="14.00" fill="#cfffac">lib/status_code.ts</text>
</g>
<!-- auth/auth.controller.ts&#45;&gt;lib/status_code.ts -->
<g id="edge13" class="edge">
<title>auth/auth.controller.ts&#45;&gt;lib/status_code.ts</title>
<path fill="none" stroke="#757575" d="M381.1,-602.86C453.78,-597.04 569.13,-585.74 667.5,-566.88 696.36,-561.34 728.07,-552.89 753.64,-545.46"/>
<polygon fill="#757575" stroke="#757575" points="754.51,-548.85 763.11,-542.66 752.53,-542.13 754.51,-548.85"/>
</g>
<!-- middleware/auth.middleware.ts -->
<g id="node15" class="node">
<title>middleware/auth.middleware.ts</title>
<path fill="none" stroke="#c6c5fe" d="M654.71,-541.75C654.71,-541.75 467.04,-541.75 467.04,-541.75 463.08,-541.75 459.12,-537.79 459.12,-533.83 459.12,-533.83 459.12,-525.92 459.12,-525.92 459.12,-521.96 463.08,-518 467.04,-518 467.04,-518 654.71,-518 654.71,-518 658.67,-518 662.62,-521.96 662.62,-525.92 662.62,-525.92 662.62,-533.83 662.62,-533.83 662.62,-537.79 658.67,-541.75 654.71,-541.75"/>
<text xml:space="preserve" text-anchor="middle" x="560.88" y="-524.45" font-family="Arial" font-size="14.00" fill="#c6c5fe">middleware/auth.middleware.ts</text>
</g>
<!-- auth/auth.controller.ts&#45;&gt;middleware/auth.middleware.ts -->
<g id="edge14" class="edge">
<title>auth/auth.controller.ts&#45;&gt;middleware/auth.middleware.ts</title>
<path fill="none" stroke="#757575" d="M348.96,-595.52C392.41,-581.99 462.15,-560.29 509.43,-545.57"/>
<polygon fill="#757575" stroke="#757575" points="510.4,-548.94 518.9,-542.63 508.31,-542.26 510.4,-548.94"/>
</g>
<!-- customers/customers.controller.ts&#45;&gt;lib/status_code.ts -->
<g id="edge21" class="edge">
<title>customers/customers.controller.ts&#45;&gt;lib/status_code.ts</title>
<path fill="none" stroke="#757575" d="M416.45,-548.22C429.17,-549.31 441.99,-550.24 454.25,-550.88 548.9,-555.76 573,-558.11 667.5,-550.88 688.96,-549.23 712.16,-546.16 733.23,-542.85"/>
<polygon fill="#757575" stroke="#757575" points="733.55,-546.35 742.86,-541.3 732.43,-539.44 733.55,-546.35"/>
</g>
<!-- customers/customers.controller.ts&#45;&gt;middleware/auth.middleware.ts -->
<g id="edge22" class="edge">
<title>customers/customers.controller.ts&#45;&gt;middleware/auth.middleware.ts</title>
<path fill="none" stroke="#757575" d="M417.72,-533.28C427.51,-533.04 437.45,-532.81 447.28,-532.57"/>
<polygon fill="#757575" stroke="#757575" points="447.32,-536.07 457.24,-532.33 447.16,-529.07 447.32,-536.07"/>
</g>
<!-- customers/customers.model.ts -->
<g id="node18" class="node">
<title>customers/customers.model.ts</title>
<path fill="none" stroke="#cfffac" d="M897.58,-350.75C897.58,-350.75 712.17,-350.75 712.17,-350.75 708.21,-350.75 704.25,-346.79 704.25,-342.83 704.25,-342.83 704.25,-334.92 704.25,-334.92 704.25,-330.96 708.21,-327 712.17,-327 712.17,-327 897.58,-327 897.58,-327 901.54,-327 905.5,-330.96 905.5,-334.92 905.5,-334.92 905.5,-342.83 905.5,-342.83 905.5,-346.79 901.54,-350.75 897.58,-350.75"/>
<text xml:space="preserve" text-anchor="middle" x="804.88" y="-333.45" font-family="Arial" font-size="14.00" fill="#cfffac">customers/customers.model.ts</text>
</g>
<!-- customers/customers.controller.ts&#45;&gt;customers/customers.model.ts -->
<g id="edge19" class="edge">
<title>customers/customers.controller.ts&#45;&gt;customers/customers.model.ts</title>
<path fill="none" stroke="#757575" d="M385.77,-523.53C396.77,-521.06 407.88,-518.19 418.25,-514.88 555.04,-471.17 707.35,-391.83 772.04,-356.58"/>
<polygon fill="#757575" stroke="#757575" points="773.6,-359.72 780.69,-351.84 770.24,-353.58 773.6,-359.72"/>
</g>
<!-- customers/customers.service.ts -->
<g id="node19" class="node">
<title>customers/customers.service.ts</title>
<path fill="none" stroke="#c6c5fe" d="M656.21,-309.75C656.21,-309.75 465.54,-309.75 465.54,-309.75 461.58,-309.75 457.62,-305.79 457.62,-301.83 457.62,-301.83 457.62,-293.92 457.62,-293.92 457.62,-289.96 461.58,-286 465.54,-286 465.54,-286 656.21,-286 656.21,-286 660.17,-286 664.12,-289.96 664.12,-293.92 664.12,-293.92 664.12,-301.83 664.12,-301.83 664.12,-305.79 660.17,-309.75 656.21,-309.75"/>
<text xml:space="preserve" text-anchor="middle" x="560.88" y="-292.45" font-family="Arial" font-size="14.00" fill="#c6c5fe">customers/customers.service.ts</text>
</g>
<!-- customers/customers.controller.ts&#45;&gt;customers/customers.service.ts -->
<g id="edge20" class="edge">
<title>customers/customers.controller.ts&#45;&gt;customers/customers.service.ts</title>
<path fill="none" stroke="#757575" d="M407.03,-523.78C411.07,-521.24 414.85,-518.29 418.25,-514.88 479.21,-453.67 394.87,-386.62 454.25,-323.88 456.99,-320.98 460.01,-318.38 463.22,-316.05"/>
<polygon fill="#757575" stroke="#757575" points="464.79,-319.19 471.48,-310.98 461.13,-313.23 464.79,-319.19"/>
</g>
<!-- middleware/owner.middleware.ts -->
<g id="node20" class="node">
<title>middleware/owner.middleware.ts</title>
<path fill="none" stroke="#c6c5fe" d="M659.58,-743.75C659.58,-743.75 462.17,-743.75 462.17,-743.75 458.21,-743.75 454.25,-739.79 454.25,-735.83 454.25,-735.83 454.25,-727.92 454.25,-727.92 454.25,-723.96 458.21,-720 462.17,-720 462.17,-720 659.58,-720 659.58,-720 663.54,-720 667.5,-723.96 667.5,-727.92 667.5,-727.92 667.5,-735.83 667.5,-735.83 667.5,-739.79 663.54,-743.75 659.58,-743.75"/>
<text xml:space="preserve" text-anchor="middle" x="560.88" y="-726.45" font-family="Arial" font-size="14.00" fill="#c6c5fe">middleware/owner.middleware.ts</text>
</g>
<!-- customers/customers.controller.ts&#45;&gt;middleware/owner.middleware.ts -->
<g id="edge23" class="edge">
<title>customers/customers.controller.ts&#45;&gt;middleware/owner.middleware.ts</title>
<path fill="none" stroke="#757575" d="M356.7,-548.23C378.22,-556.05 402.36,-568.3 418.25,-586.88 455.56,-630.47 411.96,-672.08 454.25,-710.88 455.18,-711.73 456.13,-712.55 457.11,-713.34"/>
<polygon fill="#757575" stroke="#757575" points="454.97,-716.12 465.21,-718.87 458.92,-710.34 454.97,-716.12"/>
</g>
<!-- dashboard/dashboard.controller.ts&#45;&gt;lib/status_code.ts -->
<g id="edge28" class="edge">
<title>dashboard/dashboard.controller.ts&#45;&gt;lib/status_code.ts</title>
<path fill="none" stroke="#757575" d="M418.37,-415.05C490.47,-420.83 586.29,-433.04 667.5,-458.88 707.2,-471.5 749.18,-495.12 775.9,-511.64"/>
<polygon fill="#757575" stroke="#757575" points="773.75,-514.42 784.08,-516.77 777.47,-508.49 773.75,-514.42"/>
</g>
<!-- dashboard/dashboard.controller.ts&#45;&gt;middleware/auth.middleware.ts -->
<g id="edge29" class="edge">
<title>dashboard/dashboard.controller.ts&#45;&gt;middleware/auth.middleware.ts</title>
<path fill="none" stroke="#757575" d="M392.76,-422.19C401.53,-424.59 410.17,-427.46 418.25,-430.88 464.96,-450.64 511.74,-487.47 538.13,-510.22"/>
<polygon fill="#757575" stroke="#757575" points="535.61,-512.66 545.44,-516.62 540.23,-507.4 535.61,-512.66"/>
</g>
<!-- dashboard/dashboard.service.ts -->
<g id="node21" class="node">
<title>dashboard/dashboard.service.ts</title>
<path fill="none" stroke="#c6c5fe" d="M656.96,-141.75C656.96,-141.75 464.79,-141.75 464.79,-141.75 460.83,-141.75 456.88,-137.79 456.88,-133.83 456.88,-133.83 456.88,-125.92 456.88,-125.92 456.88,-121.96 460.83,-118 464.79,-118 464.79,-118 656.96,-118 656.96,-118 660.92,-118 664.88,-121.96 664.88,-125.92 664.88,-125.92 664.88,-133.83 664.88,-133.83 664.88,-137.79 660.92,-141.75 656.96,-141.75"/>
<text xml:space="preserve" text-anchor="middle" x="560.88" y="-124.45" font-family="Arial" font-size="14.00" fill="#c6c5fe">dashboard/dashboard.service.ts</text>
</g>
<!-- dashboard/dashboard.controller.ts&#45;&gt;dashboard/dashboard.service.ts -->
<g id="edge27" class="edge">
<title>dashboard/dashboard.controller.ts&#45;&gt;dashboard/dashboard.service.ts</title>
<path fill="none" stroke="#757575" d="M407.66,-397.61C411.48,-395.11 415.05,-392.21 418.25,-388.88 492.36,-311.72 380.37,-228.25 454.25,-150.88 454.86,-150.24 455.47,-149.62 456.1,-149.02"/>
<polygon fill="#757575" stroke="#757575" points="458.07,-151.93 463.77,-142.99 453.75,-146.42 458.07,-151.93"/>
</g>
<!-- orders/order.controller.ts&#45;&gt;auth/auth.model.ts -->
<g id="edge39" class="edge">
<title>orders/order.controller.ts&#45;&gt;auth/auth.model.ts</title>
<path fill="none" stroke="#757575" d="M322.29,-784.17C346.19,-805.76 399.59,-849.71 454.25,-865.88 545.14,-892.76 587.28,-916.35 667.5,-865.88 698.79,-846.18 678.47,-818.09 703.5,-790.88 719.85,-773.09 742.81,-759.05 762.65,-749.14"/>
<polygon fill="#757575" stroke="#757575" points="764.11,-752.32 771.62,-744.85 761.09,-746.01 764.11,-752.32"/>
</g>
<!-- orders/order.controller.ts&#45;&gt;lib/status_code.ts -->
<g id="edge40" class="edge">
<title>orders/order.controller.ts&#45;&gt;lib/status_code.ts</title>
<path fill="none" stroke="#757575" d="M389.36,-778.05C481.7,-783.42 626.09,-785.86 667.5,-752.88 713.05,-716.58 673.54,-676.82 703.5,-626.88 722.48,-595.24 754.39,-566.92 777.13,-549.17"/>
<polygon fill="#757575" stroke="#757575" points="779.21,-551.98 785.05,-543.14 774.97,-546.41 779.21,-551.98"/>
</g>
<!-- orders/order.controller.ts&#45;&gt;middleware/auth.middleware.ts -->
<g id="edge41" class="edge">
<title>orders/order.controller.ts&#45;&gt;middleware/auth.middleware.ts</title>
<path fill="none" stroke="#757575" d="M331.03,-759.51C354.69,-745.28 392.54,-720.07 418.25,-690.88 439.82,-666.38 433.98,-652.45 454.25,-626.88 478.31,-596.52 512.13,-567.24 534.97,-548.93"/>
<polygon fill="#757575" stroke="#757575" points="536.86,-551.9 542.54,-542.96 532.52,-546.41 536.86,-551.9"/>
</g>
<!-- orders/order.service.ts -->
<g id="node25" class="node">
<title>orders/order.service.ts</title>
<path fill="none" stroke="#c6c5fe" d="M627.71,-823.75C627.71,-823.75 494.04,-823.75 494.04,-823.75 490.08,-823.75 486.12,-819.79 486.12,-815.83 486.12,-815.83 486.12,-807.92 486.12,-807.92 486.12,-803.96 490.08,-800 494.04,-800 494.04,-800 627.71,-800 627.71,-800 631.67,-800 635.62,-803.96 635.62,-807.92 635.62,-807.92 635.62,-815.83 635.62,-815.83 635.62,-819.79 631.67,-823.75 627.71,-823.75"/>
<text xml:space="preserve" text-anchor="middle" x="560.88" y="-806.45" font-family="Arial" font-size="14.00" fill="#c6c5fe">orders/order.service.ts</text>
</g>
<!-- orders/order.controller.ts&#45;&gt;orders/order.service.ts -->
<g id="edge42" class="edge">
<title>orders/order.controller.ts&#45;&gt;orders/order.service.ts</title>
<path fill="none" stroke="#757575" d="M386.49,-784.2C414.42,-788.66 446.12,-793.72 474.69,-798.28"/>
<polygon fill="#757575" stroke="#757575" points="473.97,-801.71 484.4,-799.83 475.07,-794.8 473.97,-801.71"/>
</g>
<!-- payments/payment.controller.ts&#45;&gt;lib/status_code.ts -->
<g id="edge47" class="edge">
<title>payments/payment.controller.ts&#45;&gt;lib/status_code.ts</title>
<path fill="none" stroke="#757575" d="M410.62,-366.14C484.69,-368.39 586,-378.92 667.5,-414.88 716.93,-436.68 762.31,-482.16 786.22,-508.93"/>
<polygon fill="#757575" stroke="#757575" points="783.54,-511.18 792.75,-516.41 788.81,-506.58 783.54,-511.18"/>
</g>
<!-- payments/payment.controller.ts&#45;&gt;middleware/auth.middleware.ts -->
<g id="edge48" class="edge">
<title>payments/payment.controller.ts&#45;&gt;middleware/auth.middleware.ts</title>
<path fill="none" stroke="#757575" d="M397.68,-380.17C404.82,-382.58 411.78,-385.45 418.25,-388.88 473.87,-418.31 521.77,-476.81 544.97,-508.42"/>
<polygon fill="#757575" stroke="#757575" points="542.05,-510.36 550.72,-516.43 547.73,-506.27 542.05,-510.36"/>
</g>
<!-- payments/payment.model.ts -->
<g id="node27" class="node">
<title>payments/payment.model.ts</title>
<path fill="none" stroke="#cfffac" d="M890.46,-182.75C890.46,-182.75 719.29,-182.75 719.29,-182.75 715.33,-182.75 711.38,-178.79 711.38,-174.83 711.38,-174.83 711.38,-166.92 711.38,-166.92 711.38,-162.96 715.33,-159 719.29,-159 719.29,-159 890.46,-159 890.46,-159 894.42,-159 898.38,-162.96 898.38,-166.92 898.38,-166.92 898.38,-174.83 898.38,-174.83 898.38,-178.79 894.42,-182.75 890.46,-182.75"/>
<text xml:space="preserve" text-anchor="middle" x="804.88" y="-165.45" font-family="Arial" font-size="14.00" fill="#cfffac">payments/payment.model.ts</text>
</g>
<!-- payments/payment.controller.ts&#45;&gt;payments/payment.model.ts -->
<g id="edge49" class="edge">
<title>payments/payment.controller.ts&#45;&gt;payments/payment.model.ts</title>
<path fill="none" stroke="#757575" d="M311.6,-355.61C320.67,-312.2 357.78,-165.43 454.25,-108.88 536.01,-60.94 581.16,-69.79 667.5,-108.88 689.59,-118.88 682.56,-137.65 703.5,-149.88 706.15,-151.42 708.89,-152.85 711.71,-154.18"/>
<polygon fill="#757575" stroke="#757575" points="710.22,-157.35 720.79,-157.96 712.91,-150.89 710.22,-157.35"/>
</g>
<!-- payments/payment.service.ts -->
<g id="node28" class="node">
<title>payments/payment.service.ts</title>
<path fill="none" stroke="#c6c5fe" d="M649.08,-183.75C649.08,-183.75 472.67,-183.75 472.67,-183.75 468.71,-183.75 464.75,-179.79 464.75,-175.83 464.75,-175.83 464.75,-167.92 464.75,-167.92 464.75,-163.96 468.71,-160 472.67,-160 472.67,-160 649.08,-160 649.08,-160 653.04,-160 657,-163.96 657,-167.92 657,-167.92 657,-175.83 657,-175.83 657,-179.79 653.04,-183.75 649.08,-183.75"/>
<text xml:space="preserve" text-anchor="middle" x="560.88" y="-166.45" font-family="Arial" font-size="14.00" fill="#c6c5fe">payments/payment.service.ts</text>
</g>
<!-- payments/payment.controller.ts&#45;&gt;payments/payment.service.ts -->
<g id="edge50" class="edge">
<title>payments/payment.controller.ts&#45;&gt;payments/payment.service.ts</title>
<path fill="none" stroke="#757575" d="M315.44,-355.69C332.59,-323.3 384.1,-234.7 454.25,-192.88 456.74,-191.39 459.32,-190 461.97,-188.72"/>
<polygon fill="#757575" stroke="#757575" points="463.27,-191.97 471.08,-184.81 460.51,-185.54 463.27,-191.97"/>
</g>
<!-- services/service.controller.ts&#45;&gt;lib/status_code.ts -->
<g id="edge54" class="edge">
<title>services/service.controller.ts&#45;&gt;lib/status_code.ts</title>
<path fill="none" stroke="#757575" d="M400.78,-458.02C473.53,-463.89 577.65,-474.46 667.5,-491.88 696.93,-497.58 729.26,-506.47 755.06,-514.22"/>
<polygon fill="#757575" stroke="#757575" points="754.02,-517.56 764.61,-517.13 756.06,-510.87 754.02,-517.56"/>
</g>
<!-- services/service.controller.ts&#45;&gt;middleware/auth.middleware.ts -->
<g id="edge55" class="edge">
<title>services/service.controller.ts&#45;&gt;middleware/auth.middleware.ts</title>
<path fill="none" stroke="#757575" d="M383.59,-464.21C395.28,-466.72 407.16,-469.61 418.25,-472.88 455,-483.7 495.39,-500.47 523.61,-513.02"/>
<polygon fill="#757575" stroke="#757575" points="521.85,-516.07 532.41,-516.99 524.73,-509.69 521.85,-516.07"/>
</g>
<!-- services/service.services.ts -->
<g id="node29" class="node">
<title>services/service.services.ts</title>
<path fill="none" stroke="#c6c5fe" d="M642.71,-225.75C642.71,-225.75 479.04,-225.75 479.04,-225.75 475.08,-225.75 471.12,-221.79 471.12,-217.83 471.12,-217.83 471.12,-209.92 471.12,-209.92 471.12,-205.96 475.08,-202 479.04,-202 479.04,-202 642.71,-202 642.71,-202 646.67,-202 650.62,-205.96 650.62,-209.92 650.62,-209.92 650.62,-217.83 650.62,-217.83 650.62,-221.79 646.67,-225.75 642.71,-225.75"/>
<text xml:space="preserve" text-anchor="middle" x="560.88" y="-208.45" font-family="Arial" font-size="14.00" fill="#c6c5fe">services/service.services.ts</text>
</g>
<!-- services/service.controller.ts&#45;&gt;services/service.services.ts -->
<g id="edge56" class="edge">
<title>services/service.controller.ts&#45;&gt;services/service.services.ts</title>
<path fill="none" stroke="#757575" d="M401.06,-443.18C407.38,-439.98 413.23,-435.94 418.25,-430.88 480.6,-367.98 392.08,-297.96 454.25,-234.88 456.45,-232.64 458.82,-230.61 461.31,-228.77"/>
<polygon fill="#757575" stroke="#757575" points="462.92,-231.89 469.6,-223.66 459.25,-225.93 462.92,-231.89"/>
</g>
<!-- tokens/token.service.ts -->
<g id="node31" class="node">
<title>tokens/token.service.ts</title>
<path fill="none" stroke="#c6c5fe" d="M629.58,-701.75C629.58,-701.75 492.17,-701.75 492.17,-701.75 488.21,-701.75 484.25,-697.79 484.25,-693.83 484.25,-693.83 484.25,-685.92 484.25,-685.92 484.25,-681.96 488.21,-678 492.17,-678 492.17,-678 629.58,-678 629.58,-678 633.54,-678 637.5,-681.96 637.5,-685.92 637.5,-685.92 637.5,-693.83 637.5,-693.83 637.5,-697.79 633.54,-701.75 629.58,-701.75"/>
<text xml:space="preserve" text-anchor="middle" x="560.88" y="-684.45" font-family="Arial" font-size="14.00" fill="#c6c5fe">tokens/token.service.ts</text>
</g>
<!-- tokens/token.controller.ts&#45;&gt;tokens/token.service.ts -->
<g id="edge59" class="edge">
<title>tokens/token.controller.ts&#45;&gt;tokens/token.service.ts</title>
<path fill="none" stroke="#757575" d="M391.31,-676.42C417.42,-678.51 446.38,-680.82 472.83,-682.93"/>
<polygon fill="#757575" stroke="#757575" points="472.24,-686.39 482.49,-683.7 472.8,-679.41 472.24,-686.39"/>
</g>
<!-- users/user.controller.ts&#45;&gt;lib/status_code.ts -->
<g id="edge64" class="edge">
<title>users/user.controller.ts&#45;&gt;lib/status_code.ts</title>
<path fill="none" stroke="#757575" d="M384.21,-494.6C456.81,-495.87 569.92,-499.35 667.5,-508.88 688.92,-510.97 712.11,-514.18 733.18,-517.46"/>
<polygon fill="#757575" stroke="#757575" points="732.39,-520.88 742.82,-519 733.49,-513.97 732.39,-520.88"/>
</g>
<!-- users/user.controller.ts&#45;&gt;middleware/auth.middleware.ts -->
<g id="edge65" class="edge">
<title>users/user.controller.ts&#45;&gt;middleware/auth.middleware.ts</title>
<path fill="none" stroke="#757575" d="M384.11,-504.63C408.84,-508.18 436.73,-512.19 462.88,-515.94"/>
<polygon fill="#757575" stroke="#757575" points="462.07,-519.36 472.47,-517.32 463.07,-512.43 462.07,-519.36"/>
</g>
<!-- users/user.service.ts -->
<g id="node32" class="node">
<title>users/user.service.ts</title>
<path fill="none" stroke="#c6c5fe" d="M622.46,-267.75C622.46,-267.75 499.29,-267.75 499.29,-267.75 495.33,-267.75 491.38,-263.79 491.38,-259.83 491.38,-259.83 491.38,-251.92 491.38,-251.92 491.38,-247.96 495.33,-244 499.29,-244 499.29,-244 622.46,-244 622.46,-244 626.42,-244 630.38,-247.96 630.38,-251.92 630.38,-251.92 630.38,-259.83 630.38,-259.83 630.38,-263.79 626.42,-267.75 622.46,-267.75"/>
<text xml:space="preserve" text-anchor="middle" x="560.88" y="-250.45" font-family="Arial" font-size="14.00" fill="#c6c5fe">users/user.service.ts</text>
</g>
<!-- users/user.controller.ts&#45;&gt;users/user.service.ts -->
<g id="edge66" class="edge">
<title>users/user.controller.ts&#45;&gt;users/user.service.ts</title>
<path fill="none" stroke="#757575" d="M384.06,-491.67C396.83,-488.11 408.96,-482.25 418.25,-472.88 480.6,-409.98 392.08,-339.96 454.25,-276.88 461.48,-269.54 470.49,-264.39 480.17,-260.82"/>
<polygon fill="#757575" stroke="#757575" points="480.91,-264.26 489.45,-257.99 478.86,-257.56 480.91,-264.26"/>
</g>
<!-- auth/auth.service.ts&#45;&gt;auth/auth.model.ts -->
<g id="edge15" class="edge">
<title>auth/auth.service.ts&#45;&gt;auth/auth.model.ts</title>
<path fill="none" stroke="#757575" d="M627.86,-658.49C641.13,-661.32 654.88,-664.77 667.5,-668.88 704.5,-680.91 744.69,-700.32 771.79,-714.41"/>
<polygon fill="#757575" stroke="#757575" points="770.03,-717.44 780.51,-719.01 773.3,-711.25 770.03,-717.44"/>
</g>
<!-- auth/auth.service.ts&#45;&gt;lib/status_code.ts -->
<g id="edge18" class="edge">
<title>auth/auth.service.ts&#45;&gt;lib/status_code.ts</title>
<path fill="none" stroke="#757575" d="M627.59,-635.51C641.09,-631.92 654.98,-627.43 667.5,-621.88 710.52,-602.8 754.65,-570.17 780.65,-549.33"/>
<polygon fill="#757575" stroke="#757575" points="782.65,-552.22 788.2,-543.19 778.23,-546.79 782.65,-552.22"/>
</g>
<!-- db/index.ts -->
<g id="node16" class="node">
<title>db/index.ts</title>
<path fill="none" stroke="#c6c5fe" d="M837.58,-308.75C837.58,-308.75 772.17,-308.75 772.17,-308.75 768.21,-308.75 764.25,-304.79 764.25,-300.83 764.25,-300.83 764.25,-292.92 764.25,-292.92 764.25,-288.96 768.21,-285 772.17,-285 772.17,-285 837.58,-285 837.58,-285 841.54,-285 845.5,-288.96 845.5,-292.92 845.5,-292.92 845.5,-300.83 845.5,-300.83 845.5,-304.79 841.54,-308.75 837.58,-308.75"/>
<text xml:space="preserve" text-anchor="middle" x="804.88" y="-291.45" font-family="Arial" font-size="14.00" fill="#c6c5fe">db/index.ts</text>
</g>
<!-- auth/auth.service.ts&#45;&gt;db/index.ts -->
<g id="edge16" class="edge">
<title>auth/auth.service.ts&#45;&gt;db/index.ts</title>
<path fill="none" stroke="#757575" d="M582.01,-635.6C606.58,-619.45 647.32,-588.65 667.5,-550.88 716.87,-458.45 631.39,-393.9 703.5,-317.88 716.12,-304.57 734.84,-298.57 752.71,-296.15"/>
<polygon fill="#757575" stroke="#757575" points="752.83,-299.66 762.45,-295.21 752.16,-292.69 752.83,-299.66"/>
</g>
<!-- lib/secret.ts -->
<g id="node17" class="node">
<title>lib/secret.ts</title>
<path fill="none" stroke="#cfffac" d="M839.08,-659.75C839.08,-659.75 770.67,-659.75 770.67,-659.75 766.71,-659.75 762.75,-655.79 762.75,-651.83 762.75,-651.83 762.75,-643.92 762.75,-643.92 762.75,-639.96 766.71,-636 770.67,-636 770.67,-636 839.08,-636 839.08,-636 843.04,-636 847,-639.96 847,-643.92 847,-643.92 847,-651.83 847,-651.83 847,-655.79 843.04,-659.75 839.08,-659.75"/>
<text xml:space="preserve" text-anchor="middle" x="804.88" y="-642.45" font-family="Arial" font-size="14.00" fill="#cfffac">lib/secret.ts</text>
</g>
<!-- auth/auth.service.ts&#45;&gt;lib/secret.ts -->
<g id="edge17" class="edge">
<title>auth/auth.service.ts&#45;&gt;lib/secret.ts</title>
<path fill="none" stroke="#757575" d="M627.68,-647.88C666.46,-647.88 714.85,-647.88 751.1,-647.88"/>
<polygon fill="#757575" stroke="#757575" points="750.91,-651.38 760.91,-647.88 750.91,-644.38 750.91,-651.38"/>
</g>
<!-- middleware/auth.middleware.ts&#45;&gt;auth/auth.model.ts -->
<g id="edge34" class="edge">
<title>middleware/auth.middleware.ts&#45;&gt;auth/auth.model.ts</title>
<path fill="none" stroke="#757575" d="M576.39,-542.22C597.23,-560.17 636.53,-594.83 667.5,-626.88 684.58,-644.55 684.88,-652.82 703.5,-668.88 724.03,-686.57 750.01,-702.74 770.4,-714.26"/>
<polygon fill="#757575" stroke="#757575" points="768.43,-717.17 778.88,-718.96 771.82,-711.05 768.43,-717.17"/>
</g>
<!-- middleware/auth.middleware.ts&#45;&gt;lib/status_code.ts -->
<g id="edge36" class="edge">
<title>middleware/auth.middleware.ts&#45;&gt;lib/status_code.ts</title>
<path fill="none" stroke="#757575" d="M663.1,-529.88C686.6,-529.88 711.11,-529.88 732.98,-529.88"/>
<polygon fill="#757575" stroke="#757575" points="732.98,-533.38 742.98,-529.88 732.98,-526.38 732.98,-533.38"/>
</g>
<!-- middleware/auth.middleware.ts&#45;&gt;lib/secret.ts -->
<g id="edge35" class="edge">
<title>middleware/auth.middleware.ts&#45;&gt;lib/secret.ts</title>
<path fill="none" stroke="#757575" d="M586.86,-542.06C630.06,-563.12 718.84,-606.41 768.42,-630.59"/>
<polygon fill="#757575" stroke="#757575" points="766.78,-633.68 777.3,-634.92 769.85,-627.39 766.78,-633.68"/>
</g>
<!-- db/index.ts&#45;&gt;lib/winston&#45;logger.ts -->
<g id="edge32" class="edge">
<title>db/index.ts&#45;&gt;lib/winston&#45;logger.ts</title>
<path fill="none" stroke="#757575" d="M845.82,-293.85C865,-291.1 887.77,-285.86 906.25,-275.88 942.93,-256.07 975.09,-218.97 993.13,-195.39"/>
<polygon fill="#757575" stroke="#757575" points="995.91,-197.53 999.07,-187.42 990.29,-193.35 995.91,-197.53"/>
</g>
<!-- customers/customers.service.ts&#45;&gt;lib/status_code.ts -->
<g id="edge26" class="edge">
<title>customers/customers.service.ts&#45;&gt;lib/status_code.ts</title>
<path fill="none" stroke="#757575" d="M587.4,-310.15C609.87,-321.67 642.77,-340.32 667.5,-361.88 719.6,-407.28 767.25,-474.19 789.94,-508.24"/>
<polygon fill="#757575" stroke="#757575" points="786.9,-510 795.32,-516.43 792.75,-506.15 786.9,-510"/>
</g>
<!-- customers/customers.service.ts&#45;&gt;db/index.ts -->
<g id="edge25" class="edge">
<title>customers/customers.service.ts&#45;&gt;db/index.ts</title>
<path fill="none" stroke="#757575" d="M664.5,-297.45C694.89,-297.33 726.86,-297.19 752.5,-297.09"/>
<polygon fill="#757575" stroke="#757575" points="752.31,-300.59 762.3,-297.05 752.28,-293.59 752.31,-300.59"/>
</g>
<!-- customers/customers.service.ts&#45;&gt;customers/customers.model.ts -->
<g id="edge24" class="edge">
<title>customers/customers.service.ts&#45;&gt;customers/customers.model.ts</title>
<path fill="none" stroke="#757575" d="M634.81,-310.23C661.6,-314.77 692.14,-319.94 719.82,-324.64"/>
<polygon fill="#757575" stroke="#757575" points="719.15,-328.07 729.6,-326.29 720.32,-321.17 719.15,-328.07"/>
</g>
<!-- middleware/owner.middleware.ts&#45;&gt;auth/auth.model.ts -->
<g id="edge37" class="edge">
<title>middleware/owner.middleware.ts&#45;&gt;auth/auth.model.ts</title>
<path fill="none" stroke="#757575" d="M667.67,-731.88C688.51,-731.88 709.96,-731.88 729.49,-731.88"/>
<polygon fill="#757575" stroke="#757575" points="729.24,-735.38 739.24,-731.88 729.24,-728.38 729.24,-735.38"/>
</g>
<!-- middleware/owner.middleware.ts&#45;&gt;lib/status_code.ts -->
<g id="edge38" class="edge">
<title>middleware/owner.middleware.ts&#45;&gt;lib/status_code.ts</title>
<path fill="none" stroke="#757575" d="M654.06,-719.55C658.83,-717.1 663.36,-714.23 667.5,-710.88 699.06,-685.3 680.44,-660.31 703.5,-626.88 724.69,-596.15 756.71,-567.29 778.86,-549.17"/>
<polygon fill="#757575" stroke="#757575" points="780.9,-552.02 786.51,-543.03 776.52,-546.56 780.9,-552.02"/>
</g>
<!-- dashboard/dashboard.service.ts&#45;&gt;db/index.ts -->
<g id="edge31" class="edge">
<title>dashboard/dashboard.service.ts&#45;&gt;db/index.ts</title>
<path fill="none" stroke="#757575" d="M655.3,-142.02C659.68,-144.53 663.78,-147.46 667.5,-150.88 710.06,-190 661.13,-236.54 703.5,-275.88 716.77,-288.2 735.34,-294.04 752.91,-296.61"/>
<polygon fill="#757575" stroke="#757575" points="752.41,-300.08 762.74,-297.7 753.18,-293.12 752.41,-300.08"/>
</g>
<!-- dashboard/dashboard.model.ts -->
<g id="node22" class="node">
<title>dashboard/dashboard.model.ts</title>
<path fill="none" stroke="#cfffac" d="M898.33,-140.75C898.33,-140.75 711.42,-140.75 711.42,-140.75 707.46,-140.75 703.5,-136.79 703.5,-132.83 703.5,-132.83 703.5,-124.92 703.5,-124.92 703.5,-120.96 707.46,-117 711.42,-117 711.42,-117 898.33,-117 898.33,-117 902.29,-117 906.25,-120.96 906.25,-124.92 906.25,-124.92 906.25,-132.83 906.25,-132.83 906.25,-136.79 902.29,-140.75 898.33,-140.75"/>
<text xml:space="preserve" text-anchor="middle" x="804.88" y="-123.45" font-family="Arial" font-size="14.00" fill="#cfffac">dashboard/dashboard.model.ts</text>
</g>
<!-- dashboard/dashboard.service.ts&#45;&gt;dashboard/dashboard.model.ts -->
<g id="edge30" class="edge">
<title>dashboard/dashboard.service.ts&#45;&gt;dashboard/dashboard.model.ts</title>
<path fill="none" stroke="#757575" d="M665.21,-129.45C674.06,-129.41 683.04,-129.37 691.95,-129.34"/>
<polygon fill="#757575" stroke="#757575" points="691.7,-132.84 701.68,-129.3 691.67,-125.84 691.7,-132.84"/>
</g>
<!-- index.ts -->
<g id="node23" class="node">
<title>index.ts</title>
<path fill="none" stroke="#c6c5fe" d="M59.46,-484.75C59.46,-484.75 12.79,-484.75 12.79,-484.75 8.83,-484.75 4.88,-480.79 4.88,-476.83 4.88,-476.83 4.88,-468.92 4.88,-468.92 4.88,-464.96 8.83,-461 12.79,-461 12.79,-461 59.46,-461 59.46,-461 63.42,-461 67.38,-464.96 67.38,-468.92 67.38,-468.92 67.38,-476.83 67.38,-476.83 67.38,-480.79 63.42,-484.75 59.46,-484.75"/>
<text xml:space="preserve" text-anchor="middle" x="36.12" y="-467.45" font-family="Arial" font-size="14.00" fill="#c6c5fe">index.ts</text>
</g>
<!-- index.ts&#45;&gt;app.ts -->
<g id="edge33" class="edge">
<title>index.ts&#45;&gt;app.ts</title>
<path fill="none" stroke="#757575" d="M67.86,-472.88C77.02,-472.88 87.17,-472.88 96.72,-472.88"/>
<polygon fill="#757575" stroke="#757575" points="96.45,-476.38 106.45,-472.88 96.45,-469.38 96.45,-476.38"/>
</g>
<!-- lib/json.ts -->
<g id="node24" class="node">
<title>lib/json.ts</title>
<path fill="none" stroke="#cfffac" d="M64.33,-526.75C64.33,-526.75 7.92,-526.75 7.92,-526.75 3.96,-526.75 0,-522.79 0,-518.83 0,-518.83 0,-510.92 0,-510.92 0,-506.96 3.96,-503 7.92,-503 7.92,-503 64.33,-503 64.33,-503 68.29,-503 72.25,-506.96 72.25,-510.92 72.25,-510.92 72.25,-518.83 72.25,-518.83 72.25,-522.79 68.29,-526.75 64.33,-526.75"/>
<text xml:space="preserve" text-anchor="middle" x="36.12" y="-509.45" font-family="Arial" font-size="14.00" fill="#cfffac">lib/json.ts</text>
</g>
<!-- orders/order.service.ts&#45;&gt;auth/auth.model.ts -->
<g id="edge43" class="edge">
<title>orders/order.service.ts&#45;&gt;auth/auth.model.ts</title>
<path fill="none" stroke="#757575" d="M618.18,-799.51C634.24,-795.58 651.67,-790.93 667.5,-785.88 701.19,-775.11 738.45,-760.14 765.51,-748.69"/>
<polygon fill="#757575" stroke="#757575" points="766.86,-751.92 774.68,-744.77 764.11,-745.48 766.86,-751.92"/>
</g>
<!-- orders/order.service.ts&#45;&gt;lib/status_code.ts -->
<g id="edge45" class="edge">
<title>orders/order.service.ts&#45;&gt;lib/status_code.ts</title>
<path fill="none" stroke="#757575" d="M635.9,-804.78C647.69,-800.72 658.84,-794.7 667.5,-785.88 718.25,-734.16 667.97,-690.02 703.5,-626.88 721.68,-594.58 753.96,-566.25 777,-548.68"/>
<polygon fill="#757575" stroke="#757575" points="778.78,-551.72 784.73,-542.95 774.61,-546.1 778.78,-551.72"/>
</g>
<!-- orders/order.service.ts&#45;&gt;db/index.ts -->
<g id="edge44" class="edge">
<title>orders/order.service.ts&#45;&gt;db/index.ts</title>
<path fill="none" stroke="#757575" d="M603.24,-799.54C626.13,-790.46 652.83,-775.66 667.5,-752.88 720,-671.32 639.28,-390.57 703.5,-317.88 715.74,-304.02 734.57,-297.95 752.63,-295.63"/>
<polygon fill="#757575" stroke="#757575" points="752.84,-299.12 762.49,-294.75 752.22,-292.15 752.84,-299.12"/>
</g>
<!-- orders/order.model.ts -->
<g id="node26" class="node">
<title>orders/order.model.ts</title>
<path fill="none" stroke="#cfffac" d="M869.08,-823.75C869.08,-823.75 740.67,-823.75 740.67,-823.75 736.71,-823.75 732.75,-819.79 732.75,-815.83 732.75,-815.83 732.75,-807.92 732.75,-807.92 732.75,-803.96 736.71,-800 740.67,-800 740.67,-800 869.08,-800 869.08,-800 873.04,-800 877,-803.96 877,-807.92 877,-807.92 877,-815.83 877,-815.83 877,-819.79 873.04,-823.75 869.08,-823.75"/>
<text xml:space="preserve" text-anchor="middle" x="804.88" y="-806.45" font-family="Arial" font-size="14.00" fill="#cfffac">orders/order.model.ts</text>
</g>
<!-- orders/order.service.ts&#45;&gt;orders/order.model.ts -->
<g id="edge46" class="edge">
<title>orders/order.service.ts&#45;&gt;orders/order.model.ts</title>
<path fill="none" stroke="#757575" d="M635.8,-811.88C662.8,-811.88 693.5,-811.88 721.21,-811.88"/>
<polygon fill="#757575" stroke="#757575" points="720.97,-815.38 730.97,-811.88 720.97,-808.38 720.97,-815.38"/>
</g>
<!-- payments/payment.service.ts&#45;&gt;lib/status_code.ts -->
<g id="edge52" class="edge">
<title>payments/payment.service.ts&#45;&gt;lib/status_code.ts</title>
<path fill="none" stroke="#757575" d="M656.06,-184.01C660.18,-186.53 664.04,-189.47 667.5,-192.88 721.62,-246.13 675.84,-289.16 703.5,-359.88 725.92,-417.19 766.27,-477.74 788.37,-508.79"/>
<polygon fill="#757575" stroke="#757575" points="785.29,-510.5 793.97,-516.56 790.97,-506.4 785.29,-510.5"/>
</g>
<!-- payments/payment.service.ts&#45;&gt;db/index.ts -->
<g id="edge51" class="edge">
<title>payments/payment.service.ts&#45;&gt;db/index.ts</title>
<path fill="none" stroke="#757575" d="M654.04,-184.22C658.82,-186.67 663.35,-189.53 667.5,-192.88 698.79,-218.12 672.33,-250.47 703.5,-275.88 717.31,-287.13 735.66,-292.8 752.9,-295.52"/>
<polygon fill="#757575" stroke="#757575" points="752.14,-298.95 762.5,-296.73 753.01,-292.01 752.14,-298.95"/>
</g>
<!-- payments/payment.service.ts&#45;&gt;payments/payment.model.ts -->
<g id="edge53" class="edge">
<title>payments/payment.service.ts&#45;&gt;payments/payment.model.ts</title>
<path fill="none" stroke="#757575" d="M657.17,-171.48C671.16,-171.42 685.62,-171.36 699.77,-171.31"/>
<polygon fill="#757575" stroke="#757575" points="699.54,-174.81 709.53,-171.26 699.51,-167.81 699.54,-174.81"/>
</g>
<!-- services/service.services.ts&#45;&gt;db/index.ts -->
<g id="edge57" class="edge">
<title>services/service.services.ts&#45;&gt;db/index.ts</title>
<path fill="none" stroke="#757575" d="M648.63,-226.2C655.22,-228.6 661.59,-231.46 667.5,-234.88 688.51,-246.99 682.56,-263.65 703.5,-275.88 718.37,-284.55 736.32,-289.67 752.91,-292.68"/>
<polygon fill="#757575" stroke="#757575" points="752.21,-296.11 762.63,-294.21 753.3,-289.2 752.21,-296.11"/>
</g>
<!-- services/service.model.ts -->
<g id="node30" class="node">
<title>services/service.model.ts</title>
<path fill="none" stroke="#cfffac" d="M880.71,-224.75C880.71,-224.75 729.04,-224.75 729.04,-224.75 725.08,-224.75 721.12,-220.79 721.12,-216.83 721.12,-216.83 721.12,-208.92 721.12,-208.92 721.12,-204.96 725.08,-201 729.04,-201 729.04,-201 880.71,-201 880.71,-201 884.67,-201 888.62,-204.96 888.62,-208.92 888.62,-208.92 888.62,-216.83 888.62,-216.83 888.62,-220.79 884.67,-224.75 880.71,-224.75"/>
<text xml:space="preserve" text-anchor="middle" x="804.88" y="-207.45" font-family="Arial" font-size="14.00" fill="#cfffac">services/service.model.ts</text>
</g>
<!-- services/service.services.ts&#45;&gt;services/service.model.ts -->
<g id="edge58" class="edge">
<title>services/service.services.ts&#45;&gt;services/service.model.ts</title>
<path fill="none" stroke="#757575" d="M650.96,-213.51C670.11,-213.43 690.41,-213.34 709.75,-213.26"/>
<polygon fill="#757575" stroke="#757575" points="709.5,-216.77 719.49,-213.22 709.48,-209.77 709.5,-216.77"/>
</g>
<!-- tokens/token.service.ts&#45;&gt;auth/auth.model.ts -->
<g id="edge60" class="edge">
<title>tokens/token.service.ts&#45;&gt;auth/auth.model.ts</title>
<path fill="none" stroke="#757575" d="M633.17,-702.25C663.6,-707.53 699.09,-713.69 729.81,-719.02"/>
<polygon fill="#757575" stroke="#757575" points="728.95,-722.42 739.4,-720.69 730.15,-715.53 728.95,-722.42"/>
</g>
<!-- tokens/token.service.ts&#45;&gt;lib/status_code.ts -->
<g id="edge63" class="edge">
<title>tokens/token.service.ts&#45;&gt;lib/status_code.ts</title>
<path fill="none" stroke="#757575" d="M638,-681.13C648.32,-678.14 658.46,-674.16 667.5,-668.88 688.72,-656.46 686.64,-644.77 703.5,-626.88 729.55,-599.22 761.35,-569.05 782.08,-549.82"/>
<polygon fill="#757575" stroke="#757575" points="784.41,-552.43 789.38,-543.08 779.66,-547.29 784.41,-552.43"/>
</g>
<!-- tokens/token.service.ts&#45;&gt;db/index.ts -->
<g id="edge61" class="edge">
<title>tokens/token.service.ts&#45;&gt;db/index.ts</title>
<path fill="none" stroke="#757575" d="M637.94,-686.92C649.15,-683.28 659.57,-677.59 667.5,-668.88 773.05,-552.9 598.53,-434.38 703.5,-317.88 715.83,-304.19 734.58,-298.14 752.55,-295.78"/>
<polygon fill="#757575" stroke="#757575" points="752.73,-299.28 762.37,-294.88 752.09,-292.31 752.73,-299.28"/>
</g>
<!-- tokens/token.service.ts&#45;&gt;lib/secret.ts -->
<g id="edge62" class="edge">
<title>tokens/token.service.ts&#45;&gt;lib/secret.ts</title>
<path fill="none" stroke="#757575" d="M633.17,-677.5C671,-670.94 716.68,-663.01 751.26,-657.01"/>
<polygon fill="#757575" stroke="#757575" points="751.79,-660.47 761.04,-655.31 750.59,-653.57 751.79,-660.47"/>
</g>
<!-- users/user.service.ts&#45;&gt;lib/status_code.ts -->
<g id="edge68" class="edge">
<title>users/user.service.ts&#45;&gt;lib/status_code.ts</title>
<path fill="none" stroke="#757575" d="M630.62,-259.66C643.9,-262.99 656.95,-268.36 667.5,-276.88 698.79,-302.12 685.24,-324.05 703.5,-359.88 731.46,-414.75 769.62,-476.34 789.89,-508.19"/>
<polygon fill="#757575" stroke="#757575" points="786.88,-509.98 795.22,-516.52 792.78,-506.21 786.88,-509.98"/>
</g>
<!-- users/user.service.ts&#45;&gt;db/index.ts -->
<g id="edge67" class="edge">
<title>users/user.service.ts&#45;&gt;db/index.ts</title>
<path fill="none" stroke="#757575" d="M630.58,-267.51C669.41,-274.09 717.15,-282.18 752.68,-288.2"/>
<polygon fill="#757575" stroke="#757575" points="751.82,-291.61 762.27,-289.83 752.99,-284.7 751.82,-291.61"/>
</g>
<!-- users/user.model.ts -->
<g id="node33" class="node">
<title>users/user.model.ts</title>
<path fill="none" stroke="#cfffac" d="M863.83,-266.75C863.83,-266.75 745.92,-266.75 745.92,-266.75 741.96,-266.75 738,-262.79 738,-258.83 738,-258.83 738,-250.92 738,-250.92 738,-246.96 741.96,-243 745.92,-243 745.92,-243 863.83,-243 863.83,-243 867.79,-243 871.75,-246.96 871.75,-250.92 871.75,-250.92 871.75,-258.83 871.75,-258.83 871.75,-262.79 867.79,-266.75 863.83,-266.75"/>
<text xml:space="preserve" text-anchor="middle" x="804.88" y="-249.45" font-family="Arial" font-size="14.00" fill="#cfffac">users/user.model.ts</text>
</g>
<!-- users/user.service.ts&#45;&gt;users/user.model.ts -->
<g id="edge69" class="edge">
<title>users/user.service.ts&#45;&gt;users/user.model.ts</title>
<path fill="none" stroke="#757575" d="M630.58,-255.59C660.44,-255.47 695.58,-255.32 726.38,-255.2"/>
<polygon fill="#757575" stroke="#757575" points="726.01,-258.7 735.99,-255.16 725.98,-251.7 726.01,-258.7"/>
</g>
</g>
</svg>
